<svg width="116" height="53" viewBox="0 0 116 53" fill="none" xmlns="http://www.w3.org/2000/svg">
<g clipPath="url(#clip0_2043_83)">
<path d="M47.6013 39.365C46.909 39.7279 46.1858 40.0525 45.4343 40.3348C43.1751 41.1835 40.6802 41.6646 38.0487 41.6646C28.3134 41.6646 19.8329 34.9677 19.8329 26.3744C19.8329 23.958 21.2308 21.8635 23.212 20.7603C14.4078 21.1294 12.1445 30.3061 12.1445 35.6819C12.1445 50.8796 26.1524 52.4219 29.1707 52.4219C30.7973 52.4219 33.2525 51.9482 34.7317 51.4841C34.8219 51.4541 34.9116 51.4239 35.0014 51.393C40.7122 49.4235 45.5322 45.5488 48.7005 40.5264C49.1549 39.8061 48.3558 38.9693 47.6013 39.365Z" fill="url(#paint0_linear_2043_83)"/>
<path opacity="0.35" d="M47.6013 39.365C46.909 39.7279 46.1858 40.0525 45.4343 40.3348C43.1751 41.1835 40.6802 41.6646 38.0487 41.6646C28.3134 41.6646 19.8329 34.9677 19.8329 26.3744C19.8329 23.958 21.2308 21.8635 23.212 20.7603C14.4078 21.1294 12.1445 30.3061 12.1445 35.6819C12.1445 50.8796 26.1524 52.4219 29.1707 52.4219C30.7973 52.4219 33.2525 51.9482 34.7317 51.4841C34.8219 51.4541 34.9116 51.4239 35.0014 51.393C40.7122 49.4235 45.5322 45.5488 48.7005 40.5264C49.1549 39.8061 48.3558 38.9693 47.6013 39.365Z" fill="url(#paint1_radial_2043_83)"/>
<path d="M21.8142 49.8328C19.9844 48.6985 18.3959 47.2029 17.1369 45.4353C15.1886 42.6999 14.0239 39.3353 14.0239 35.6822C14.0239 30.3064 16.5271 25.545 20.3857 22.5281C21.262 21.843 22.3841 21.1519 23.2108 20.7606C23.8528 20.4567 24.9507 19.9094 26.409 19.9301C28.8266 19.9644 30.6533 21.1969 31.6931 22.5968C32.492 23.6724 32.9847 24.9975 33.0012 26.4359C33.0017 26.3927 38.0341 10.0591 16.5327 10.0591C7.50272 10.0591 0.0664062 18.6317 0.0664062 26.1502C0.0664062 30.9194 1.17309 34.727 2.55872 37.6778C5.64477 44.2507 11.3676 49.338 18.3681 51.5794C20.9033 52.3912 23.604 52.8336 26.409 52.8336C29.3181 52.8336 32.114 52.3551 34.7305 51.4845C33.2513 51.9485 31.683 52.2025 30.0564 52.2025C27.0382 52.2025 24.225 51.3271 21.8142 49.8328Z" fill="url(#paint2_linear_2043_83)"/>
<path opacity="0.41" d="M17.1369 45.4353C15.1886 42.6999 14.0239 39.3353 14.0239 35.6822C14.0239 30.3064 16.5271 25.545 20.3857 22.5281C21.262 21.843 22.3841 21.1519 23.2108 20.7606C23.8528 20.4567 24.9507 19.9094 26.409 19.9301C28.8266 19.9644 30.6533 21.1969 31.6931 22.5968C32.492 23.6724 32.9847 24.9975 33.0012 26.4359C33.0017 26.3927 38.0341 10.0591 16.5327 10.0591C7.50272 10.0591 0.0664062 18.6317 0.0664062 26.1502C0.0664062 30.9194 1.17309 34.727 2.55872 37.6778C5.64477 44.2507 11.3676 49.338 18.3681 51.5794C20.9033 52.3912 23.604 52.8336 26.409 52.8336C29.3181 52.8336 32.114 52.3551 34.7305 51.4845C33.2513 51.9485 31.683 52.2025 30.0564 52.2025C27.0382 52.2025 24.225 51.3271 21.8142 49.8328C19.9844 48.6985 18.3959 47.2029 17.1369 45.4353Z" fill="url(#paint3_radial_2043_83)"/>
<path d="M31.4006 30.7912C31.2338 31.0071 30.7209 31.3051 30.7209 31.9564C30.7209 32.4922 31.0707 33.0092 31.6923 33.443C34.6508 35.5077 40.2271 35.2295 40.242 35.2294C42.5442 35.2215 44.6151 34.5884 46.4701 33.5039C47.314 33.0104 48.0951 32.4243 48.7993 31.7552C51.2161 29.4587 52.6896 26.2223 52.7305 22.6265C52.7829 18.0149 51.0929 14.9491 50.3982 13.5916C46.0382 5.07072 36.6268 0.166992 26.3939 0.166992C11.9694 0.166992 0.259972 11.759 0.0664062 26.13C0.164193 18.6121 7.63593 12.5413 16.5177 12.5413C17.2378 12.5413 21.3444 12.6115 25.1594 14.6137C28.5198 16.3773 30.2816 18.5084 31.5062 20.6225C32.7776 22.8176 33.0038 25.5901 33.0038 26.6954C33.0038 27.8008 32.4465 29.4374 31.4006 30.7912Z" fill="url(#paint4_radial_2043_83)"/>
<path d="M31.4006 30.7912C31.2338 31.0071 30.7209 31.3051 30.7209 31.9564C30.7209 32.4922 31.0707 33.0092 31.6923 33.443C34.6508 35.5077 40.2271 35.2295 40.242 35.2294C42.5442 35.2215 44.6151 34.5884 46.4701 33.5039C47.314 33.0104 48.0951 32.4243 48.7993 31.7552C51.2161 29.4587 52.6896 26.2223 52.7305 22.6265C52.7829 18.0149 51.0929 14.9491 50.3982 13.5916C46.0382 5.07072 36.6268 0.166992 26.3939 0.166992C11.9694 0.166992 0.259972 11.759 0.0664062 26.13C0.164193 18.6121 7.63593 12.5413 16.5177 12.5413C17.2378 12.5413 21.3444 12.6115 25.1594 14.6137C28.5198 16.3773 30.2816 18.5084 31.5062 20.6225C32.7776 22.8176 33.0038 25.5901 33.0038 26.6954C33.0038 27.8008 32.4465 29.4374 31.4006 30.7912Z" fill="url(#paint5_radial_2043_83)"/>
<path d="M73.685 5.06738C72.4033 6.55981 71.8063 9.91864 73.106 13.3236C74.4056 16.7286 76.3976 15.989 77.6394 19.4612C79.2784 24.0428 78.5155 30.1973 78.5155 30.1973C78.5155 30.1973 80.4859 35.9033 81.8589 29.8423C84.8981 18.4578 73.685 7.87086 73.685 5.06738Z" fill="url(#paint6_radial_2043_83)"/>
<path d="M58.0458 52.3322C71.1715 52.3322 81.8046 41.6416 81.8046 28.4595C81.8046 15.2775 71.1715 4.58691 58.0585 4.58691C44.9455 4.58691 34.3125 15.2775 34.3125 28.4595C34.2872 41.6544 44.9328 52.3322 58.0458 52.3322Z" fill="url(#paint7_radial_2043_83)"/>
<path d="M75.8459 43.1803C75.3323 43.5427 74.7935 43.8679 74.2337 44.1535C74.9753 43.0668 75.6596 41.942 76.2836 40.7837C76.7899 40.2233 77.2537 39.6786 77.6317 39.0895C77.8157 38.8001 78.0231 38.443 78.2427 38.0288C79.5766 35.6256 81.0473 31.7365 81.089 27.7417V27.732C81.0901 27.6337 81.0901 27.5354 81.0901 27.4369C81.0967 26.4341 80.9942 25.4336 80.784 24.4531C80.7948 24.5297 80.8042 24.6062 80.8138 24.6827C80.802 24.6239 80.792 24.5644 80.7793 24.5054C80.7989 24.6142 80.8147 24.7195 80.8316 24.8256C81.1042 27.1387 80.91 29.3949 79.9387 31.0583C79.9234 31.0826 79.9077 31.1054 79.8922 31.1291C80.3958 28.601 80.5643 25.8097 80.004 23.0151C80.004 23.0151 79.7799 21.6565 78.1105 17.5321C77.1497 15.1582 75.4433 13.212 73.9357 11.7941C72.6143 10.1592 71.4141 9.06205 70.7525 8.36545C69.3705 6.91022 68.7912 5.81942 68.5534 5.10768C68.3472 5.00427 65.7094 2.44186 65.4999 2.34424C64.3486 4.12933 60.7277 9.713 62.4501 14.9299C63.2307 17.2941 65.2048 19.7479 67.2708 21.1244C67.3615 21.2281 68.5001 22.4648 69.0416 25.2541C69.6007 28.1359 69.3068 30.3845 68.156 33.7098C66.8027 36.6271 63.3354 39.511 60.0889 39.806C53.1482 40.4366 50.6073 36.3213 50.6073 36.3213C53.0874 37.3128 55.8295 37.1054 57.497 36.0774C59.1776 35.0378 60.1942 34.2669 61.0193 34.5709C61.8329 34.8734 62.4805 33.9952 61.8994 33.0847C60.9819 31.6716 59.3091 30.9432 57.6497 31.2343C55.9673 31.5077 54.4262 32.8404 52.2218 31.5497C52.0791 31.4669 51.941 31.3765 51.8081 31.2788C51.6628 31.1833 52.2805 31.4242 52.1364 31.3156C51.7074 31.0826 50.9482 30.5748 50.7512 30.3941C50.7184 30.364 51.0841 30.5107 51.0513 30.4806C48.9901 28.7833 49.2475 27.6367 49.3123 26.9176C49.3642 26.3423 49.7386 25.605 50.3694 25.306C50.6741 25.4723 50.864 25.5993 50.864 25.5993C50.864 25.5993 50.734 25.3337 50.6637 25.1938C50.6884 25.1831 50.7119 25.1859 50.7364 25.1755C50.9861 25.296 51.538 25.609 51.8287 25.7999C52.2072 26.0669 52.3278 26.305 52.3278 26.305C52.3278 26.305 52.4275 26.2501 52.3538 26.0173C52.327 25.9218 52.2121 25.6184 51.8372 25.3122L51.8606 25.3148C52.085 25.4427 52.2976 25.5903 52.4958 25.7559C52.6015 25.3715 52.7916 24.9702 52.7498 24.2523C52.7243 23.7475 52.736 23.6168 52.6471 23.4219C52.5674 23.2545 52.6917 23.1892 52.83 23.363C52.8064 23.2268 52.7667 23.0939 52.7119 22.967L52.713 22.9539C52.8856 22.3525 56.3659 20.7883 56.6192 20.6055C57.0354 20.311 57.3844 19.9315 57.6432 19.4922C57.8368 19.1838 57.9824 18.751 58.0178 18.0946C58.0368 17.6213 57.8166 17.306 54.2976 16.9376C53.3352 16.8428 52.7706 16.1454 52.4497 15.5019C52.3911 15.3633 52.3315 15.2377 52.2717 15.1122C52.2147 14.9654 52.169 14.8146 52.1348 14.6609C52.7101 13.0085 53.6768 11.6113 55.0982 10.5557C55.1757 10.4852 54.7888 10.5738 54.8661 10.5033C54.9564 10.4209 55.5462 10.1834 55.6576 10.1298C55.7936 10.0656 55.0752 9.76052 54.4409 9.83481C53.7949 9.9076 53.6578 9.98468 53.313 10.1308C53.4561 9.98842 53.911 9.80174 53.8044 9.80297C53.108 9.90975 52.2426 10.3145 51.5029 10.773C51.5014 10.6932 51.5167 10.6139 51.5476 10.5403C51.2028 10.6865 50.3562 11.2783 50.1097 11.7789C50.1203 11.683 50.1251 11.5864 50.1239 11.4899C49.8613 11.7089 49.6244 11.957 49.4177 12.2295L49.4048 12.2412C47.4053 11.4357 45.6457 11.3835 44.1567 11.7447C43.831 11.4176 43.6718 11.6567 42.9307 10.0283C42.8803 9.93024 42.9693 10.1251 42.9307 10.0283C42.8087 9.71251 43.005 10.4496 42.9307 10.0283C41.6844 11.0116 40.0447 12.126 39.2576 12.9126C39.2479 12.944 40.1758 12.6504 39.2576 12.9126C38.936 13.0045 38.9579 13.1953 38.909 14.9197C38.8972 15.0505 38.9077 15.1969 38.8971 15.3146C38.2683 16.1158 37.84 16.7942 37.6781 17.1457C36.8649 18.5469 35.9693 20.7313 35.1012 24.1867C35.4841 23.2501 35.9458 22.3477 36.4812 21.4891C35.7593 23.3232 35.0614 26.2033 34.9219 30.6386C35.0965 29.7233 35.3204 28.8182 35.5927 27.9271C35.4222 31.6068 36.0568 35.2793 37.4521 38.6884C37.9514 39.9099 38.7773 41.7636 40.1833 43.7945C44.6007 48.4424 50.8314 51.3359 57.7309 51.3359C64.9335 51.3359 71.4014 48.1846 75.8459 43.1803Z" fill="url(#paint8_linear_2043_83)"/>
<path d="M70.5173 46.5555C79.2346 45.5461 83.0935 36.5628 78.138 36.3862C73.6617 36.2431 66.3883 47.0319 70.5173 46.5555Z" fill="url(#paint9_radial_2043_83)"/>
<path d="M78.7647 34.5515C84.7623 31.061 83.1985 23.5215 83.1985 23.5215C83.1985 23.5215 80.8838 26.2104 79.3114 30.4966C77.7581 34.7409 75.1589 36.6596 78.7647 34.5515Z" fill="url(#paint10_radial_2043_83)"/>
<path d="M59.725 51.0167C68.0867 53.6849 75.2734 47.0978 70.8435 44.898C66.8158 42.9141 55.7563 49.7551 59.725 51.0167Z" fill="url(#paint11_radial_2043_83)"/>
<path d="M79.3885 37.7523C79.5919 37.4652 79.867 36.5461 80.11 36.1353C81.5862 33.7523 81.5967 31.8522 81.5967 31.8087C82.4883 27.3546 82.4074 25.5358 81.8589 22.1723C81.4173 19.464 79.4867 15.5841 77.8142 13.7157C76.0908 11.7907 77.305 12.4179 75.6363 11.0118C74.1736 9.39045 72.7555 7.78487 71.9832 7.13917C66.402 2.47321 66.5281 1.48213 66.6356 1.31316C66.6175 1.33301 66.5908 1.3625 66.5568 1.40109C66.4907 1.1376 66.444 0.916016 66.444 0.916016C66.444 0.916016 63.3932 3.96682 62.751 9.05149C62.3317 12.371 63.5743 15.8315 65.3736 18.0433C66.3105 19.1896 67.3694 20.2305 68.5314 21.1476C69.8909 23.1 70.6392 25.5078 70.6392 28.0994C70.6392 34.5887 65.3757 39.8493 58.8828 39.8493C57.9979 39.8497 57.1157 39.7507 56.253 39.5539C53.1895 38.9701 51.4205 37.4247 50.5382 36.3756C50.0326 35.7743 49.8176 35.336 49.8176 35.336C52.5624 36.3193 55.5973 36.1136 57.4429 35.0942C59.3027 34.0631 60.4281 33.2987 61.3413 33.6001C62.2416 33.9002 62.9583 33.0292 62.3154 32.1263C61.6854 31.2247 60.0461 29.9335 57.612 30.2912C55.75 30.5624 54.0443 31.8841 51.6046 30.6041C51.4474 30.5224 51.2946 30.4327 51.1467 30.3354C50.9859 30.2406 51.6695 30.4796 51.51 30.3719C51.0352 30.1408 50.1948 29.6371 49.9769 29.458C49.9406 29.4282 50.3453 29.5737 50.3088 29.5437C48.0276 27.8604 48.3124 26.7234 48.3841 26.0102C48.4416 25.4396 48.8559 24.7085 49.5541 24.412C49.8913 24.5769 50.1014 24.7028 50.1014 24.7028C50.1014 24.7028 49.9576 24.4395 49.8798 24.3007C49.907 24.2903 49.933 24.2929 49.9601 24.2825C50.2364 24.402 50.8473 24.7123 51.1689 24.9018C51.5879 25.1666 51.7214 25.4027 51.7214 25.4027C51.7214 25.4027 51.8317 25.3483 51.7501 25.1174C51.7203 25.0227 51.5933 24.7218 51.1784 24.4181L51.2043 24.4207C51.4506 24.5463 51.6858 24.6926 51.9073 24.8582C52.0243 24.477 52.2347 24.079 52.1884 23.3671C52.1602 22.8665 52.1732 22.7369 52.0748 22.5436C51.9866 22.3777 52.1242 22.3128 52.2772 22.4853C52.2507 22.3492 52.2067 22.2171 52.1464 22.0923L52.1477 22.0794C52.3388 21.483 56.1906 19.9318 56.4709 19.7504C56.9227 19.4669 57.309 19.0905 57.6043 18.6463C57.8183 18.3404 57.9797 17.9112 58.019 17.2603C58.0321 16.967 57.9418 16.7349 56.9217 16.5128C56.3095 16.3796 55.3623 16.2499 53.9013 16.1128C52.8362 16.0188 52.2112 15.3273 51.8561 14.6891C51.7912 14.5516 51.7252 14.4268 51.6591 14.3026C51.5963 14.1579 51.5456 14.0082 51.5076 13.8551C52.1449 12.1866 53.2927 10.7619 54.7874 9.784C54.873 9.71399 54.4449 9.80193 54.5305 9.73198C54.6305 9.65036 55.2832 9.41475 55.4065 9.36165C55.5571 9.29817 54.7619 8.99555 54.0599 9.0691C53.345 9.1413 53.1932 9.21768 52.8116 9.36272C52.97 9.22148 53.4735 9.03623 53.3555 9.03757C52.5847 9.14344 51.6267 9.54491 50.8078 9.99954C50.8063 9.91983 50.8232 9.84085 50.8572 9.76875C50.4757 9.91374 49.5386 10.5006 49.2658 10.9971C49.2775 10.902 49.2828 10.8063 49.2815 10.7105C48.9942 10.9247 48.732 11.1707 48.5001 11.4438L48.4858 11.4555C46.2728 10.6566 44.3253 10.6049 42.6774 10.9631C42.3168 10.6387 41.7372 10.1481 40.9169 8.53312C40.8612 8.43587 40.8313 8.7341 40.7885 8.63808C40.4697 7.89877 40.2771 6.68749 40.3088 5.85243C40.3088 5.85243 39.6495 6.1529 39.1038 7.4078C39.0025 7.6334 38.9375 7.75784 38.8726 7.88228C38.8427 7.91857 38.9403 7.47016 38.9247 7.49456C38.8299 7.65513 38.5845 7.8795 38.4767 8.16991C38.4026 8.38513 38.2987 8.50566 38.2324 8.77408L38.2168 8.7987C38.2115 8.71959 38.2365 8.47323 38.2183 8.52375C37.9625 9.04049 37.7424 9.57413 37.5595 10.1209C37.2657 11.0868 36.9237 12.4015 36.8695 14.1119C36.8564 14.2415 36.8681 14.3868 36.8563 14.5035C36.1605 15.298 35.6864 15.9707 35.5071 16.3194C34.6076 17.7094 33.6163 19.8757 32.6554 23.3024C33.083 22.3664 33.5942 21.4709 34.1829 20.6269C33.3838 22.4457 32.6114 25.302 32.457 29.7006C32.651 28.7903 32.8989 27.8924 33.1995 27.0116C33.0615 29.9447 33.4032 33.581 35.2574 37.6837C36.3584 40.0969 38.8927 44.9975 45.0853 48.8218C45.0853 48.8218 47.1914 50.3904 50.8126 51.5657C51.0802 51.6628 51.3513 51.7584 51.628 51.8511C51.5411 51.8161 51.4572 51.7792 51.3756 51.7413C53.7859 52.4635 56.2884 52.8313 58.8046 52.8332C68.1807 52.8411 70.946 49.0759 70.946 49.0759C70.946 49.0759 70.9363 49.0832 70.9185 49.096C71.0509 48.9715 71.1783 48.842 71.3009 48.7076C69.8215 50.1046 66.4455 50.1973 65.1832 50.0965C67.336 49.4642 68.7527 48.9294 71.5083 47.8743C71.8307 47.7547 72.1605 47.6184 72.4975 47.4654C72.5339 47.4493 72.5707 47.4319 72.6073 47.4153C72.6741 47.3841 72.7404 47.3547 72.8078 47.3219C74.1504 46.6892 75.4129 45.8989 76.5685 44.9676C79.3356 42.7571 79.9377 40.6025 80.2524 39.1818C80.2085 39.318 80.0718 39.6354 79.9757 39.841C79.263 41.3654 77.6827 42.3008 75.9664 43.1031C76.7831 42.0315 77.5405 40.9159 78.2351 39.7615C78.7953 39.2057 78.9701 38.3364 79.3885 37.7523Z" fill="url(#paint12_radial_2043_83)"/>
<path d="M76.0225 43.0378C77.1508 41.7939 78.164 40.3711 78.9314 38.7577C80.9064 34.6053 83.96 27.701 81.555 20.49C79.6543 14.7908 77.0445 11.6744 73.731 8.63013C68.3496 3.68644 66.8466 1.47943 66.8466 0.166992C66.8466 0.166992 60.6332 7.09333 63.3279 14.3174C66.0226 21.5415 71.5415 21.2767 75.1928 28.8154C79.4894 37.6865 71.7166 47.3671 65.2887 50.0767C65.6823 49.9893 79.5777 46.8448 80.308 38.8967C80.2914 39.0429 79.9783 41.2412 76.0225 43.0378Z" fill="url(#paint13_radial_2043_83)"/>
<path d="M58.0174 17.2608C58.0384 16.7914 57.7949 16.4761 53.9131 16.112C52.3161 15.9645 51.7045 14.4884 51.5181 13.8672C50.9502 15.3425 50.7157 16.8907 50.8418 18.7633C50.928 19.99 51.7522 21.3068 52.1461 22.0798C52.1461 22.0798 52.2337 21.966 52.2741 21.924C53.016 21.1516 56.1243 19.9747 56.4164 19.8076C56.7382 19.6043 57.9633 18.7092 58.0174 17.2608Z" fill="url(#paint14_linear_2043_83)"/>
<path d="M40.9318 8.54171C40.8761 8.44441 40.8462 8.74264 40.8034 8.64667C40.4847 7.90736 40.2908 6.70914 40.3367 5.8623C40.3367 5.8623 39.6774 6.16278 39.1317 7.41768C39.0304 7.64328 38.9654 7.76772 38.9005 7.89216C38.8706 7.92845 38.9682 7.48003 38.9526 7.50444C38.8578 7.66501 38.6125 7.88937 38.5059 8.16678C38.4176 8.39367 38.3267 8.51548 38.259 8.79685C38.2382 8.87334 38.28 8.45843 38.2618 8.50895C36.9927 10.9616 36.7505 14.6702 36.8842 14.5134C39.586 11.6285 42.6821 10.9443 42.6821 10.9443C42.3527 10.7016 41.6369 10.001 40.9318 8.54171Z" fill="url(#paint15_linear_2043_83)"/>
<path d="M51.182 38.7087C47.4502 37.1154 43.2075 34.8682 43.3677 29.763C43.5858 23.0395 49.6376 24.3684 49.6376 24.3684C49.4092 24.424 48.7986 24.8588 48.5822 25.3222C48.3535 25.9016 47.9363 27.2102 49.2005 28.5817C51.1856 30.7329 45.1221 33.6854 54.4812 39.2631C54.7173 39.3915 52.2872 39.1865 51.182 38.7087Z" fill="url(#paint16_linear_2043_83)"/>
<path d="M49.8569 35.3578C52.5031 36.2788 55.586 36.1173 57.4316 35.0978C58.6672 34.41 60.2522 33.3084 61.2275 33.5803C60.3831 33.2465 59.7436 33.0906 58.9742 33.0525C58.8432 33.0525 58.6862 33.0497 58.5435 33.0353C58.2617 33.0344 57.9801 33.0498 57.7001 33.0815C57.2238 33.1253 56.6957 33.4258 56.2157 33.3776C56.1897 33.375 56.6813 33.1756 56.6413 33.1847C56.387 33.2377 56.1106 33.2492 55.8187 33.2853C55.6331 33.306 55.4735 33.3292 55.2893 33.3369C49.7774 33.8043 45.119 30.3496 45.119 30.3496C44.7225 31.685 46.8941 34.3264 49.8569 35.3578Z" fill="url(#paint17_linear_2043_83)"/>
<path d="M76.0105 43.0738C81.5856 37.6001 84.4062 30.9464 83.2138 23.4835C83.2138 23.4835 83.6901 27.3103 81.8838 31.2244C82.7516 27.4032 82.8526 22.6546 80.5471 17.7372C77.4699 11.1737 72.4091 7.72002 70.4769 6.27919C67.5495 4.09605 66.336 1.87324 66.3141 1.41455C65.4396 3.20633 62.7941 9.34663 66.0299 14.6347C69.0614 19.589 73.837 21.0595 77.1802 25.604C83.3393 33.9761 76.0105 43.0738 76.0105 43.0738Z" fill="url(#paint18_linear_2043_83)"/>
<path d="M75.2111 28.8317C73.2627 24.8067 70.831 23.0512 68.5307 21.1484C68.7983 21.5231 68.8642 21.6555 69.0124 21.8978C71.037 24.0556 74.0225 29.319 71.855 35.9265C67.775 48.3638 51.4551 42.5071 49.7441 40.8619C50.4363 48.0602 62.4845 51.5047 70.329 46.8367C74.7928 42.6111 78.4039 35.4277 75.2111 28.8317Z" fill="url(#paint19_linear_2043_83)"/>
<mask id="mask0_2043_83" style="mask-type:luminance" maskUnits="userSpaceOnUse" x="63" y="0" width="53" height="53">
<path d="M89.5989 52.8335C104.142 52.8335 115.932 41.0437 115.932 26.5002C115.932 11.9568 104.142 0.166992 89.5989 0.166992C75.0554 0.166992 63.2656 11.9568 63.2656 26.5002C63.2656 41.0437 75.0554 52.8335 89.5989 52.8335Z" fill="white"/>
</mask>
<g mask="url(#mask0_2043_83)">
<path d="M89.598 0.166992C99.8309 0.166992 108.701 6.00368 113.059 14.5295L89.598 14.5306C82.9874 14.5306 77.6284 19.8896 77.6284 26.5002C77.6284 28.5779 78.1577 30.5319 79.0889 32.2347L79.2323 32.4851H67.4452L67.4414 12.2632C72.127 4.98624 80.2997 0.166992 89.598 0.166992Z" fill="#DB4437"/>
<path d="M89.598 0.166992C99.8309 0.166992 108.701 6.00368 113.059 14.5295L89.598 14.5306C82.9874 14.5306 77.6284 19.8896 77.6284 26.5002C77.6284 28.5779 78.1577 30.5319 79.0889 32.2347L79.2323 32.4851H67.4452L67.4414 12.2632C72.127 4.98624 80.2997 0.166992 89.598 0.166992Z" fill="url(#paint20_linear_2043_83)"/>
<path d="M79.5181 32.3801L67.5993 11.939L67.4258 12.2382L79.2578 32.5268L79.5181 32.3801Z" fill="#3E2723" fill-opacity="0.15"/>
<path d="M67.4453 12.2715L78.1543 22.981C77.8125 24.0938 77.6285 25.2756 77.6285 26.5004C77.6285 28.578 78.1578 30.532 79.089 32.2349L67.4453 12.2715Z" fill="url(#paint21_radial_2043_83)"/>
<path d="M67.4415 12.2651L79.2306 32.4851C81.3133 36.058 85.1705 38.4699 89.5993 38.4699C93.8239 38.4699 97.5305 36.2723 99.6597 32.965L99.953 32.4851H99.971V32.7843C97.8853 36.3602 94.0281 38.7691 89.6023 38.7691C85.3748 38.7691 81.6681 36.5715 79.5389 33.2642L79.2455 32.7843H79.2336L67.3496 12.4088L67.4415 12.2651Z" fill="white" fill-opacity="0.1"/>
</g>
<mask id="mask1_2043_83" style="mask-type:luminance" maskUnits="userSpaceOnUse" x="63" y="0" width="53" height="53">
<path d="M89.5989 52.8335C104.142 52.8335 115.932 41.0437 115.932 26.5002C115.932 11.9568 104.142 0.166992 89.5989 0.166992C75.0554 0.166992 63.2656 11.9568 63.2656 26.5002C63.2656 41.0437 75.0554 52.8335 89.5989 52.8335Z" fill="white"/>
</mask>
<g mask="url(#mask1_2043_83)">
<path d="M67.4427 12.2627L79.2331 32.4853C81.3011 36.0636 85.169 38.4701 89.5989 38.4701C94.0288 38.4701 97.8966 36.0636 99.9664 32.4866L99.9676 41.1992L88.3609 52.8051C74.3922 52.1587 63.2656 40.6289 63.2656 26.5005C63.2656 21.255 64.7993 16.3678 67.4427 12.2627Z" fill="#0F9D58"/>
<path d="M67.4427 12.2627L79.2331 32.4853C81.3011 36.0636 85.169 38.4701 89.5989 38.4701C94.0288 38.4701 97.8966 36.0636 99.9664 32.4866L99.9676 41.1992L88.3609 52.8051C74.3922 52.1587 63.2656 40.6289 63.2656 26.5005C63.2656 21.255 64.7993 16.3678 67.4427 12.2627Z" fill="url(#paint22_linear_2043_83)"/>
<path d="M99.7265 32.8829L99.4781 32.7393L87.9902 52.8333H88.3344L99.7355 32.8919L99.7265 32.8829Z" fill="#263238" fill-opacity="0.15"/>
<path d="M88.3516 52.8011L94.6237 29.4004L99.9681 32.4856L88.3516 52.8011Z" fill="url(#paint23_radial_2043_83)"/>
<path d="M100.071 32.8832C101.089 31.1236 101.678 29.0888 101.678 26.9103C101.678 25.6475 101.481 24.4326 101.119 23.2925C101.403 24.3159 101.567 25.3902 101.567 26.5033C101.567 28.6818 100.978 30.7167 99.9605 32.4762L99.9665 32.4882L88.332 52.8366H88.6792L100.077 32.8951L100.071 32.8832Z" fill="white" fill-opacity="0.2"/>
</g>
<mask id="mask2_2043_83" style="mask-type:luminance" maskUnits="userSpaceOnUse" x="63" y="0" width="53" height="53">
<path d="M89.5989 52.8335C104.142 52.8335 115.932 41.0437 115.932 26.5002C115.932 11.9568 104.142 0.166992 89.5989 0.166992C75.0554 0.166992 63.2656 11.9568 63.2656 26.5002C63.2656 41.0437 75.0554 52.8335 89.5989 52.8335Z" fill="white"/>
</mask>
<g mask="url(#mask2_2043_83)">
<path d="M113.059 14.5278C114.896 18.1196 115.932 22.1888 115.932 26.4998C115.932 41.0433 104.142 52.8331 89.5986 52.8331C89.1812 52.8331 88.7661 52.8234 88.3535 52.8042L99.9673 32.4847C100.986 30.7222 101.568 28.679 101.568 26.4998C101.568 19.8892 96.2092 14.5302 89.5986 14.5302L113.059 14.5278Z" fill="#FFCD40"/>
<path d="M113.059 14.5278C114.896 18.1196 115.932 22.1888 115.932 26.4998C115.932 41.0433 104.142 52.8331 89.5986 52.8331C89.1812 52.8331 88.7661 52.8234 88.3535 52.8042L99.9673 32.4847C100.986 30.7222 101.568 28.679 101.568 26.4998C101.568 19.8892 96.2092 14.5302 89.5986 14.5302L113.059 14.5278Z" fill="url(#paint24_linear_2043_83)"/>
<path d="M89.5996 14.5303V20.7994L113.06 14.5303H89.5996Z" fill="url(#paint25_radial_2043_83)"/>
<path d="M89.5986 14.2308L112.905 14.23L113.059 14.5277L89.5986 14.53C83.1772 14.53 77.9362 19.5876 77.6419 25.9363L77.6289 26.4997V26.2004C77.6289 19.7791 82.6864 14.5381 89.0351 14.2438L89.5986 14.2308Z" fill="#3E2723" fill-opacity="0.2"/>
<path opacity="0.1" d="M89.8977 14.5303C89.8468 14.5303 89.7989 14.5363 89.748 14.5393C96.2895 14.62 101.568 19.9406 101.568 26.4999C101.568 33.0593 96.2895 38.3798 89.748 38.4606C89.7989 38.4606 89.8468 38.4696 89.8977 38.4696C96.5079 38.4696 101.867 33.1102 101.867 26.4999C101.867 19.8897 96.5079 14.5303 89.8977 14.5303Z" fill="#3E2723"/>
</g>
<mask id="mask3_2043_83" style="mask-type:luminance" maskUnits="userSpaceOnUse" x="63" y="0" width="53" height="53">
<path d="M89.5989 52.8335C104.142 52.8335 115.932 41.0437 115.932 26.5002C115.932 11.9568 104.142 0.166992 89.5989 0.166992C75.0554 0.166992 63.2656 11.9568 63.2656 26.5002C63.2656 41.0437 75.0554 52.8335 89.5989 52.8335Z" fill="white"/>
</mask>
<g mask="url(#mask3_2043_83)">
<path d="M89.5986 38.4701C96.2092 38.4701 101.568 33.1111 101.568 26.5004C101.568 19.8898 96.2092 14.5308 89.5986 14.5308C82.9879 14.5308 77.6289 19.8898 77.6289 26.5004C77.6289 33.1111 82.9879 38.4701 89.5986 38.4701Z" fill="#F1F1F1"/>
<path d="M89.5992 36.0763C94.8877 36.0763 99.1749 31.7891 99.1749 26.5005C99.1749 21.212 94.8877 16.9248 89.5992 16.9248C84.3106 16.9248 80.0234 21.212 80.0234 26.5005C80.0234 31.7891 84.3106 36.0763 89.5992 36.0763Z" fill="#4285F4"/>
</g>
<mask id="mask4_2043_83" style="mask-type:luminance" maskUnits="userSpaceOnUse" x="63" y="0" width="53" height="53">
<path d="M89.5989 52.8335C104.142 52.8335 115.932 41.0437 115.932 26.5002C115.932 11.9568 104.142 0.166992 89.5989 0.166992C75.0554 0.166992 63.2656 11.9568 63.2656 26.5002C63.2656 41.0437 75.0554 52.8335 89.5989 52.8335Z" fill="white" fill-opacity="0.2"/>
</mask>
<g mask="url(#mask4_2043_83)">
<path d="M89.5989 0.466234C104.091 0.466234 115.848 12.1755 115.929 26.6499C115.929 26.599 115.932 26.5511 115.932 26.5002C115.932 11.9571 104.142 0.166992 89.5989 0.166992C75.0557 0.166992 63.2656 11.9571 63.2656 26.5002C63.2656 26.5511 63.2686 26.599 63.2686 26.6499C63.3494 12.1755 75.1066 0.466234 89.5989 0.466234Z" fill="white" fill-opacity="0.2"/>
<mask id="mask5_2043_83" style="mask-type:luminance" maskUnits="userSpaceOnUse" x="63" y="0" width="53" height="53">
<path d="M89.5989 52.8335C104.142 52.8335 115.932 41.0437 115.932 26.5002C115.932 11.9568 104.142 0.166992 89.5989 0.166992C75.0554 0.166992 63.2656 11.9568 63.2656 26.5002C63.2656 41.0437 75.0554 52.8335 89.5989 52.8335Z" fill="white" fill-opacity="0.15"/>
</mask>
<g mask="url(#mask5_2043_83)">
<path d="M89.5989 52.5337C104.091 52.5337 115.848 40.8244 115.929 26.3501C115.929 26.401 115.932 26.4488 115.932 26.4997C115.932 41.0428 104.142 52.833 89.5989 52.833C75.0557 52.833 63.2656 41.0428 63.2656 26.4997C63.2656 26.4488 63.2686 26.401 63.2686 26.3501C63.3494 40.8244 75.1066 52.5337 89.5989 52.5337Z" fill="#3E2723" fill-opacity="0.15"/>
</g>
<path d="M89.5989 52.8335C104.142 52.8335 115.932 41.0437 115.932 26.5002C115.932 11.9568 104.142 0.166992 89.5989 0.166992C75.0554 0.166992 63.2656 11.9568 63.2656 26.5002C63.2656 41.0437 75.0554 52.8335 89.5989 52.8335Z" fill="url(#paint26_radial_2043_83)"/>
</g>
</g>
<defs>
<linearGradient id="paint0_linear_2043_83" x1="12.1445" y1="36.5911" x2="48.8331" y2="36.5911" gradientUnits="userSpaceOnUse">
<stop stop-color="#0C59A4"/>
<stop offset="1" stop-color="#114A8B"/>
</linearGradient>
<radialGradient id="paint1_radial_2043_83" cx="0" cy="0" r="1" gradientUnits="userSpaceOnUse" gradientTransform="translate(-37.4629 -30.6363) rotate(175.274) scale(26.1193 26.074)">
<stop stop-opacity="0"/>
<stop offset="0.460005" stop-opacity="0.53"/>
<stop offset="1"/>
</radialGradient>
<linearGradient id="paint2_linear_2043_83" x1="26.6502" y1="20.6749" x2="7.33095" y2="41.7181" gradientUnits="userSpaceOnUse">
<stop stop-color="#1B9DE2"/>
<stop offset="0.16164" stop-color="#1595DF"/>
<stop offset="0.66749" stop-color="#0680D7"/>
<stop offset="1" stop-color="#0078D4"/>
</linearGradient>
<radialGradient id="paint3_radial_2043_83" cx="0" cy="0" r="1" gradientUnits="userSpaceOnUse" gradientTransform="translate(-25.9861 13.3521) rotate(90.4669) scale(28.7622 43.7948)">
<stop stop-opacity="0"/>
<stop offset="0.354312" stop-opacity="0.5"/>
<stop offset="1"/>
</radialGradient>
<radialGradient id="paint4_radial_2043_83" cx="0" cy="0" r="1" gradientUnits="userSpaceOnUse" gradientTransform="translate(0.899112 11.0339) rotate(33.9071) scale(58.4185 48.3026)">
<stop stop-color="#35C1F1"/>
<stop offset="0.11079" stop-color="#34C1ED"/>
<stop offset="0.23164" stop-color="#2FC2DF"/>
<stop offset="0.31446" stop-color="#2BC3D2"/>
<stop offset="1" stop-color="#36C752"/>
</radialGradient>
<radialGradient id="paint5_radial_2043_83" cx="0" cy="0" r="1" gradientUnits="userSpaceOnUse" gradientTransform="translate(0.197983 54.909) rotate(78.9619) scale(29.3994 13.6399)">
<stop stop-color="#66EB6E"/>
<stop offset="1" stop-color="#66EB6E" stop-opacity="0"/>
</radialGradient>
<radialGradient id="paint6_radial_2043_83" cx="0" cy="0" r="1" gradientUnits="userSpaceOnUse" gradientTransform="translate(81.066 2.09699) scale(24.1321 24.1321)">
<stop offset="0.045" stop-color="#FFEA00"/>
<stop offset="0.12" stop-color="#FFDE00"/>
<stop offset="0.254" stop-color="#FFBF00"/>
<stop offset="0.429" stop-color="#FF8E00"/>
<stop offset="0.769" stop-color="#FF272D"/>
<stop offset="0.872" stop-color="#E0255A"/>
<stop offset="0.953" stop-color="#CC2477"/>
<stop offset="1" stop-color="#C42482"/>
</radialGradient>
<radialGradient id="paint7_radial_2043_83" cx="0" cy="0" r="1" gradientUnits="userSpaceOnUse" gradientTransform="translate(67.95 10.4228) scale(53.4901 53.4901)">
<stop stop-color="#00CCDA"/>
<stop offset="0.22" stop-color="#0083FF"/>
<stop offset="0.261" stop-color="#007AF9"/>
<stop offset="0.33" stop-color="#0060E8"/>
<stop offset="0.333" stop-color="#005FE7"/>
<stop offset="0.438" stop-color="#2639AD"/>
<stop offset="0.522" stop-color="#401E84"/>
<stop offset="1" stop-color="#4A1475"/>
</radialGradient>
<linearGradient id="paint8_linear_2043_83" x1="61.0153" y1="39.1957" x2="50.8671" y2="5.9988" gradientUnits="userSpaceOnUse">
<stop stop-color="#000F43" stop-opacity="0.4"/>
<stop offset="0.485" stop-color="#001962" stop-opacity="0.173"/>
<stop offset="1" stop-color="#002079" stop-opacity="0"/>
</linearGradient>
<radialGradient id="paint9_radial_2043_83" cx="0" cy="0" r="1" gradientUnits="userSpaceOnUse" gradientTransform="translate(81.35 34.1781) scale(14.2845 14.2845)">
<stop offset="0.003" stop-color="#FFEA00"/>
<stop offset="0.497" stop-color="#FF272D"/>
<stop offset="1" stop-color="#C42482"/>
</radialGradient>
<radialGradient id="paint10_radial_2043_83" cx="0" cy="0" r="1" gradientUnits="userSpaceOnUse" gradientTransform="translate(85.6986 6.41221) scale(23.854 23.854)">
<stop offset="0.003" stop-color="#FFE900"/>
<stop offset="0.157" stop-color="#FFAF0E"/>
<stop offset="0.316" stop-color="#FF7A1B"/>
<stop offset="0.472" stop-color="#FF4E26"/>
<stop offset="0.621" stop-color="#FF2C2E"/>
<stop offset="0.762" stop-color="#FF1434"/>
<stop offset="0.892" stop-color="#FF0538"/>
<stop offset="1" stop-color="#FF0039"/>
</radialGradient>
<radialGradient id="paint11_radial_2043_83" cx="0" cy="0" r="1" gradientUnits="userSpaceOnUse" gradientTransform="translate(61.3802 44.6919) scale(21.8886 21.8886)">
<stop offset="0.003" stop-color="#FF272D"/>
<stop offset="0.497" stop-color="#C42482"/>
<stop offset="0.986" stop-color="#620700"/>
</radialGradient>
<radialGradient id="paint12_radial_2043_83" cx="0" cy="0" r="1" gradientUnits="userSpaceOnUse" gradientTransform="translate(63.7369 23.4908) scale(35.3127 35.3127)">
<stop stop-color="#FFEA00"/>
<stop offset="0.231" stop-color="#FFDE00"/>
<stop offset="0.365" stop-color="#FFBF00"/>
<stop offset="0.541" stop-color="#FF8E00"/>
<stop offset="0.763" stop-color="#FF272D"/>
<stop offset="0.796" stop-color="#F92433"/>
<stop offset="0.841" stop-color="#E91C45"/>
<stop offset="0.893" stop-color="#CF0E62"/>
<stop offset="1" stop-color="#B5007F"/>
</radialGradient>
<radialGradient id="paint13_radial_2043_83" cx="0" cy="0" r="1" gradientUnits="userSpaceOnUse" gradientTransform="translate(67.5883 -2.98196) scale(49.4345 49.4345)">
<stop offset="0.279" stop-color="#FFEA00"/>
<stop offset="0.402" stop-color="#FFDD00"/>
<stop offset="0.63" stop-color="#FFBA00"/>
<stop offset="0.856" stop-color="#FF9100"/>
<stop offset="0.933" stop-color="#FF6711"/>
<stop offset="0.994" stop-color="#FF4A1D"/>
</radialGradient>
<linearGradient id="paint14_linear_2043_83" x1="44.8781" y1="19.1607" x2="59.6409" y2="16.9442" gradientUnits="userSpaceOnUse">
<stop stop-color="#C42482" stop-opacity="0.5"/>
<stop offset="0.474" stop-color="#FF272D" stop-opacity="0.5"/>
<stop offset="0.486" stop-color="#FF2C2C" stop-opacity="0.513"/>
<stop offset="0.675" stop-color="#FF7A1A" stop-opacity="0.72"/>
<stop offset="0.829" stop-color="#FFB20D" stop-opacity="0.871"/>
<stop offset="0.942" stop-color="#FFD605" stop-opacity="0.964"/>
<stop offset="1" stop-color="#FFE302"/>
</linearGradient>
<linearGradient id="paint15_linear_2043_83" x1="39.9387" y1="14.0761" x2="37.866" y2="6.64137" gradientUnits="userSpaceOnUse">
<stop stop-color="#891551" stop-opacity="0.6"/>
<stop offset="1" stop-color="#C42482" stop-opacity="0"/>
</linearGradient>
<linearGradient id="paint16_linear_2043_83" x1="46.3696" y1="25.2673" x2="50.1286" y2="30.5134" gradientUnits="userSpaceOnUse">
<stop offset="0.005" stop-color="#891551" stop-opacity="0.5"/>
<stop offset="0.484" stop-color="#FF272D" stop-opacity="0.5"/>
<stop offset="1" stop-color="#FF272D" stop-opacity="0"/>
</linearGradient>
<linearGradient id="paint17_linear_2043_83" x1="52.7475" y1="33.514" x2="52.7999" y2="32.9974" gradientUnits="userSpaceOnUse">
<stop stop-color="#C42482"/>
<stop offset="0.083" stop-color="#C42482" stop-opacity="0.81"/>
<stop offset="0.206" stop-color="#C42482" stop-opacity="0.565"/>
<stop offset="0.328" stop-color="#C42482" stop-opacity="0.362"/>
<stop offset="0.447" stop-color="#C42482" stop-opacity="0.204"/>
<stop offset="0.562" stop-color="#C42482" stop-opacity="0.091"/>
<stop offset="0.673" stop-color="#C42482" stop-opacity="0.023"/>
<stop offset="0.773" stop-color="#C42482" stop-opacity="0"/>
</linearGradient>
<linearGradient id="paint18_linear_2043_83" x1="72.2434" y1="2.10071" x2="86.4448" y2="33.8573" gradientUnits="userSpaceOnUse">
<stop stop-color="#FFF14F"/>
<stop offset="0.268" stop-color="#FFEE4C"/>
<stop offset="0.452" stop-color="#FFE643"/>
<stop offset="0.612" stop-color="#FFD834"/>
<stop offset="0.757" stop-color="#FFC41E"/>
<stop offset="0.892" stop-color="#FFAB02"/>
<stop offset="0.902" stop-color="#FFA900"/>
<stop offset="0.949" stop-color="#FFA000"/>
<stop offset="1" stop-color="#FF9100"/>
</linearGradient>
<linearGradient id="paint19_linear_2043_83" x1="68.4332" y1="23.14" x2="60.7594" y2="43.7439" gradientUnits="userSpaceOnUse">
<stop stop-color="#FF8E00"/>
<stop offset="0.04" stop-color="#FF8E00" stop-opacity="0.858"/>
<stop offset="0.084" stop-color="#FF8E00" stop-opacity="0.729"/>
<stop offset="0.13" stop-color="#FF8E00" stop-opacity="0.628"/>
<stop offset="0.178" stop-color="#FF8E00" stop-opacity="0.557"/>
<stop offset="0.227" stop-color="#FF8E00" stop-opacity="0.514"/>
<stop offset="0.282" stop-color="#FF8E00" stop-opacity="0.5"/>
<stop offset="0.389" stop-color="#FF8E00" stop-opacity="0.478"/>
<stop offset="0.524" stop-color="#FF8E00" stop-opacity="0.416"/>
<stop offset="0.676" stop-color="#FF8E00" stop-opacity="0.314"/>
<stop offset="0.838" stop-color="#FF8E00" stop-opacity="0.172"/>
<stop offset="1" stop-color="#FF8E00" stop-opacity="0"/>
</linearGradient>
<linearGradient id="paint20_linear_2043_83" x1="69.5155" y1="18.2816" x2="82.248" y2="10.3765" gradientUnits="userSpaceOnUse">
<stop stop-color="#A52714" stop-opacity="0.6"/>
<stop offset="0.66" stop-color="#A52714" stop-opacity="0"/>
</linearGradient>
<radialGradient id="paint21_radial_2043_83" cx="0" cy="0" r="1" gradientUnits="userSpaceOnUse" gradientTransform="translate(67.427 7.24023) scale(15.8728 15.8728)">
<stop stop-color="#3E2723" stop-opacity="0.2"/>
<stop offset="1" stop-color="#3E2723" stop-opacity="0"/>
</radialGradient>
<linearGradient id="paint22_linear_2043_83" x1="91.8048" y1="47.8491" x2="76.8748" y2="40.4211" gradientUnits="userSpaceOnUse">
<stop stop-color="#055524" stop-opacity="0.4"/>
<stop offset="0.33" stop-color="#055524" stop-opacity="0"/>
</linearGradient>
<radialGradient id="paint23_radial_2043_83" cx="0" cy="0" r="1" gradientUnits="userSpaceOnUse" gradientTransform="translate(89.5515 18.1616) scale(26.2943 26.2943)">
<stop stop-color="#263238" stop-opacity="0.2"/>
<stop offset="1" stop-color="#263238" stop-opacity="0"/>
</radialGradient>
<linearGradient id="paint24_linear_2043_83" x1="99.6589" y1="12.6736" x2="103.947" y2="31.4649" gradientUnits="userSpaceOnUse">
<stop stop-color="#EA6100" stop-opacity="0.3"/>
<stop offset="0.66" stop-color="#EA6100" stop-opacity="0"/>
</linearGradient>
<radialGradient id="paint25_radial_2043_83" cx="0" cy="0" r="1" gradientUnits="userSpaceOnUse" gradientTransform="translate(80.3851 14.5147) scale(25.1596 25.1596)">
<stop stop-color="#3E2723" stop-opacity="0.2"/>
<stop offset="1" stop-color="#3E2723" stop-opacity="0"/>
</radialGradient>
<radialGradient id="paint26_radial_2043_83" cx="0" cy="0" r="1" gradientUnits="userSpaceOnUse" gradientTransform="translate(71.1315 7.35297) scale(52.8909)">
<stop stop-color="white" stop-opacity="0.1"/>
<stop offset="1" stop-color="white" stop-opacity="0"/>
</radialGradient>
<clipPath id="clip0_2043_83">
<rect width="115.866" height="52.6665" fill="white" transform="translate(0.0664062 0.166992)"/>
</clipPath>
</defs>
</svg>
